HIERARCHY
ROOT Pelvis
{
	OFFSET 0.000000 0.941512 0.000000
	CHANNELS 6 Xposition Yposition Zposition Zrotation Yrotation Xrotation 
	JOINT Pelvis_L_Hip
	{
		OFFSET 0.000000 0.000000 0.000000
		CHANNELS 3 Zrotation Yrotation Xrotation
		JOINT L_Hip
		{
			OFFSET 0.062321 -0.080322 -0.016990
			CHANNELS 3 Zrotation Yrotation Xrotation
			JOINT L_Knee
			{
				OFFSET 0.093051 -0.381305 -0.029784
				CHANNELS 3 Zrotation Yrotation Xrotation
				JOINT L_Ankle
				{
					OFFSET -0.010371 -0.431000 -0.033614
					CHANNELS 3 Zrotation Yrotation Xrotation
					End Site #name: L_Foot
					{
						OFFSET 0.069299 -0.038670 0.119418
					}
				}
			}
		}
	}
	JOINT Pelvis_R_Hip
	{
		OFFSET 0.000000 0.000000 0.000000
		CHANNELS 3 Zrotation Yrotation Xrotation
		JOINT R_Hip
		{
			OFFSET -0.055334 -0.094904 -0.002373
			CHANNELS 3 Zrotation Yrotation Xrotation
			JOINT R_Knee
			{
				OFFSET -0.064207 -0.384370 -0.019592
				CHANNELS 3 Zrotation Yrotation Xrotation
				JOINT R_Ankle
				{
					OFFSET 0.025418 -0.419734 -0.065953
					CHANNELS 3 Zrotation Yrotation Xrotation
					End Site #name: R_Foot
					{
						OFFSET -0.057233 -0.039888 0.132134
					}
				}
			}
		}
	}
	JOINT Pelvis_Spine1
	{
		OFFSET 0.000000 0.000000 0.000000
		CHANNELS 3 Zrotation Yrotation Xrotation
		JOINT Spine1
		{
			OFFSET -0.005562 0.124093 -0.043360
			CHANNELS 3 Zrotation Yrotation Xrotation
			JOINT Spine2
			{
				OFFSET 0.012244 0.139499 0.029894
				CHANNELS 3 Zrotation Yrotation Xrotation
				JOINT Spine3
				{
					OFFSET -0.002556 0.056561 0.009225
					CHANNELS 3 Zrotation Yrotation Xrotation
					JOINT Spine3_Neck
					{
						OFFSET 0.000000 0.000000 0.000000
						CHANNELS 3 Zrotation Yrotation Xrotation
						JOINT Neck
						{
							OFFSET -0.005205 0.217920 -0.024551
							CHANNELS 3 Zrotation Yrotation Xrotation
							End Site #name: Head
							{
								OFFSET 0.002365 0.091850 0.046637
							}
						}
					}
					JOINT Spine3_L_Collar
					{
						OFFSET 0.000000 0.000000 0.000000
						CHANNELS 3 Zrotation Yrotation Xrotation
						JOINT L_Collar
						{
							OFFSET 0.072225 0.116603 -0.009480
							CHANNELS 3 Zrotation Yrotation Xrotation
							JOINT L_Shoulder
							{
								OFFSET 0.115937 -0.058643 -0.021018
								CHANNELS 3 Zrotation Yrotation Xrotation
								JOINT L_Elbow
								{
									OFFSET 0.021994 -0.254722 -0.024492
									CHANNELS 3 Zrotation Yrotation Xrotation
									End Site #name: L_Wrist
									{
										OFFSET 0.048810 -0.240214 0.103329
									}
								}
							}
						}
					}
					JOINT Spine3_R_Collar
					{
						OFFSET 0.000000 0.000000 0.000000
						CHANNELS 3 Zrotation Yrotation Xrotation
						JOINT R_Collar
						{
							OFFSET -0.073372 0.120704 -0.024611
							CHANNELS 3 Zrotation Yrotation Xrotation
							JOINT R_Shoulder
							{
								OFFSET -0.108089 -0.054969 -0.020504
								CHANNELS 3 Zrotation Yrotation Xrotation
								JOINT R_Elbow
								{
									OFFSET -0.033684 -0.260739 0.009889
									CHANNELS 3 Zrotation Yrotation Xrotation
									End Site #name: R_Wrist
									{
										OFFSET -0.067980 -0.232763 0.118463
									}
								}
							}
						}
					}
				}
			}
		}
	}
}
MOTION
Frames: 8
Frame Time: 0.041667
0.006541 0.946724 0.232446 1.403362 48.764731 4.726509 0.000000 0.000000 0.000000 -14.454866 0.922834 0.196910 -37.311902 1.296305 25.422382 8.763140 43.559473 42.605273 0.000000 0.000000 0.000000 25.069556 4.542779 -25.249024 -32.985599 7.792554 25.926968 20.566413 45.860046 10.612150 0.000000 0.000000 0.000000 -0.851251 1.048584 -9.103646 -27.112698 6.210375 21.263880 27.773103 25.123164 -15.516272 0.000000 0.000000 0.000000 -16.193502 4.988494 6.649124 0.000000 0.000000 0.000000 22.765843 1.426800 15.313197 -7.505740 1.303036 4.605262 -5.210789 -35.080761 -73.275891 0.000000 0.000000 0.000000 -33.319835 17.693601 -21.340410 4.924005 -5.933343 36.638487 17.590222 46.908876 -51.690267 
0.081510 0.909172 0.232310 0.718968 47.862768 -0.040014 0.000000 0.000000 0.000000 -3.729046 0.027592 -1.483708 -57.199908 3.730253 29.879892 18.105178 49.493030 49.486042 0.000000 0.000000 0.000000 26.446586 3.514375 -19.781791 -39.504304 9.799937 30.803851 14.020227 48.910028 -0.018656 0.000000 0.000000 0.000000 -2.182948 0.639181 -3.072796 -27.169578 6.307309 20.270602 29.649939 26.655225 -13.118331 0.000000 0.000000 0.000000 -15.006344 4.765922 3.571316 0.000000 0.000000 0.000000 21.028983 8.331682 20.118937 -9.194900 1.158493 2.603500 -2.158383 -29.571775 -72.899633 0.000000 0.000000 0.000000 -32.369603 20.219382 -23.670030 4.382174 -4.969051 31.154080 18.330955 45.452965 -49.652130 
0.146265 0.903612 0.232661 1.397088 47.210757 -0.991025 0.000000 0.000000 0.000000 5.768177 -2.443716 -8.724367 -70.542515 5.785048 29.590317 28.709558 54.767101 55.827034 0.000000 0.000000 0.000000 22.852696 2.976264 -16.523813 -39.557583 10.365621 34.474298 10.028534 49.909372 -5.994739 0.000000 0.000000 0.000000 -3.761843 0.577137 -0.806292 -27.312170 6.233721 18.520946 30.840317 27.689559 -11.088376 0.000000 0.000000 0.000000 -13.841454 4.438171 2.457028 0.000000 0.000000 0.000000 18.846182 13.683747 22.981006 -11.013822 1.349867 2.940979 3.170875 -19.785142 -71.268812 0.000000 0.000000 0.000000 -30.622718 23.097872 -25.999636 5.921198 -4.233413 24.609594 18.355365 43.719835 -48.624335 
0.209067 0.923374 0.227542 0.771381 46.616818 -0.536045 0.000000 0.000000 0.000000 15.435453 -4.987868 -17.230591 -70.458781 4.790053 25.117181 32.245546 56.202522 57.258316 0.000000 0.000000 0.000000 17.430642 2.315912 -12.588056 -34.584404 8.668952 31.259070 12.147988 50.430319 -3.412406 0.000000 0.000000 0.000000 -3.954524 0.641737 -1.055879 -26.278027 5.941061 17.089779 31.204770 28.337273 -10.108423 0.000000 0.000000 0.000000 -13.672093 4.317750 2.626745 0.000000 0.000000 0.000000 18.837182 17.878364 26.624718 -13.808362 1.651017 2.768124 4.950100 -14.706361 -67.379367 0.000000 0.000000 0.000000 -30.911079 24.569660 -27.925353 8.698968 -3.174611 17.083460 20.721722 44.597698 -46.457263 
0.275207 0.961329 0.220092 0.263511 45.390117 1.653456 0.000000 0.000000 0.000000 20.385906 -6.300682 -23.358833 -55.076494 2.833719 20.249436 23.526243 52.219418 50.616943 0.000000 0.000000 0.000000 11.834186 1.858279 -9.809244 -28.934298 6.897435 24.216427 23.426435 47.753995 13.450943 0.000000 0.000000 0.000000 -2.825742 0.752371 -3.104868 -27.501908 6.015751 16.029611 31.754049 28.986652 -9.946526 0.000000 0.000000 0.000000 -14.212856 4.505682 2.241156 0.000000 0.000000 0.000000 20.643391 19.418748 29.392588 -14.456532 2.272864 4.675289 5.006302 -14.205328 -67.299803 0.000000 0.000000 0.000000 -32.665246 26.314940 -30.531565 12.005941 -2.394914 12.470169 21.121063 45.107385 -46.269364 
0.345473 1.005030 0.213544 1.221362 44.168746 3.193815 0.000000 0.000000 0.000000 17.165255 -6.281804 -24.145812 -29.772249 1.410798 16.130081 4.478987 40.896644 42.802869 0.000000 0.000000 0.000000 5.256724 1.111637 -5.962807 -22.681160 5.281246 17.664979 32.424590 38.713488 31.390550 0.000000 0.000000 0.000000 -2.086307 0.823511 -4.608022 -29.335732 6.447129 16.622556 32.639435 29.487410 -10.074517 0.000000 0.000000 0.000000 -15.775523 5.026746 2.083015 0.000000 0.000000 0.000000 22.435385 18.392738 29.804015 -14.344407 3.118720 8.217226 3.806267 -16.160786 -68.066170 0.000000 0.000000 0.000000 -35.892473 28.585289 -34.271594 14.490880 -2.052234 11.009797 19.729137 45.165869 -47.880264 
0.418106 1.033238 0.207751 1.521267 42.907970 3.805522 0.000000 0.000000 0.000000 11.740333 -5.736318 -22.085506 -7.923755 0.201820 8.608966 -7.804304 30.606471 37.468212 0.000000 0.000000 0.000000 1.549880 0.758071 -4.303802 -19.962179 4.819484 16.638840 32.628295 31.069792 37.546617 0.000000 0.000000 0.000000 -0.594342 0.856840 -6.773494 -30.607652 6.986694 18.103184 33.495423 29.623827 -10.674141 0.000000 0.000000 0.000000 -17.861903 5.675202 4.379065 0.000000 0.000000 0.000000 24.629159 16.589593 29.733050 -13.612876 4.002673 12.491493 1.251118 -20.593082 -69.402428 0.000000 0.000000 0.000000 -37.781577 29.816384 -36.014144 15.048759 -2.009125 11.063671 20.232549 46.554437 -48.403903 
0.493084 1.031627 0.203163 0.595357 41.481006 2.959229 0.000000 0.000000 0.000000 9.058220 -5.048624 -19.536012 1.350291 -0.268842 5.007657 -14.310689 21.925117 33.417576 0.000000 0.000000 0.000000 2.310733 0.882833 -4.931663 -24.186420 6.468342 23.733335 27.700595 30.727143 31.182036 0.000000 0.000000 0.000000 2.283102 0.820349 -9.919658 -31.110487 7.769447 21.308210 33.295363 29.321870 -11.771671 0.000000 0.000000 0.000000 -18.162292 5.844128 8.057078 0.000000 0.000000 0.000000 24.659524 15.286353 28.039619 -11.316014 4.526856 17.975331 1.005020 -24.019726 -74.169204 0.000000 0.000000 0.000000 -36.497550 30.359908 -35.010933 12.852431 -2.077185 11.478876 23.375753 49.907931 -47.662351 
